HIERARCHY
ROOT Hips
{
	OFFSET -0.001795 -0.223333 0.028219
	CHANNELS 6 Xposition Yposition Zposition Zrotation Yrotation Xrotation 
	JOINT LeftUpLeg
	{
		OFFSET 0.069520 -0.091406 -0.006815
		CHANNELS 3 Zrotation Yrotation Xrotation
		JOINT LeftLeg
		{
			OFFSET 0.034277 -0.375199 -0.004496
			CHANNELS 3 Zrotation Yrotation Xrotation
			JOINT LeftFoot
			{
				OFFSET -0.013596 -0.397961 -0.043693
				CHANNELS 3 Zrotation Yrotation Xrotation
				JOINT LeftToe
				{
					OFFSET 0.026358 -0.055791 0.119288
					CHANNELS 3 Zrotation Yrotation Xrotation
					End Site
					{
						OFFSET 0.000000 0.000000 0.000000
					}
				}
			}
		}
	}
	JOINT RightUpLeg
	{
		OFFSET -0.067670 -0.090522 -0.004320
		CHANNELS 3 Zrotation Yrotation Xrotation
		JOINT RightLeg
		{
			OFFSET -0.038290 -0.382569 -0.008850
			CHANNELS 3 Zrotation Yrotation Xrotation
			JOINT RightFoot
			{
				OFFSET 0.015774 -0.398415 -0.042312
				CHANNELS 3 Zrotation Yrotation Xrotation
				JOINT RightToe
				{
					OFFSET -0.025372 -0.048144 0.123348
					CHANNELS 3 Zrotation Yrotation Xrotation
					End Site
					{
						OFFSET 0.000000 0.000000 0.000000
					}
				}
			}
		}
	}
	JOINT Spine
	{
		OFFSET -0.002533 0.108963 -0.026696
		CHANNELS 3 Zrotation Yrotation Xrotation
		JOINT Spine1
		{
			OFFSET 0.005487 0.135180 0.001092
			CHANNELS 3 Zrotation Yrotation Xrotation
			JOINT Spine2
			{
				OFFSET 0.001457 0.052922 0.025425
				CHANNELS 3 Zrotation Yrotation Xrotation
				JOINT Neck
				{
					OFFSET -0.002778 0.213870 -0.042857
					CHANNELS 3 Zrotation Yrotation Xrotation
					JOINT Head
					{
						OFFSET 0.005152 0.064970 0.051349
						CHANNELS 3 Zrotation Yrotation Xrotation
						End Site
						{
							OFFSET 0.000000 0.000000 0.000000
						}
					}
				}
				JOINT LeftShoulder
				{
					OFFSET 0.078845 0.121749 -0.034090
					CHANNELS 3 Zrotation Yrotation Xrotation
					JOINT LeftArm
					{
						OFFSET 0.090977 0.030469 -0.008868
						CHANNELS 3 Zrotation Yrotation Xrotation
						JOINT LeftForeArm
						{
							OFFSET 0.259612 -0.012772 -0.027456
							CHANNELS 3 Zrotation Yrotation Xrotation
							JOINT LeftHand
							{
								OFFSET 0.249234 0.008986 -0.001171
								CHANNELS 3 Zrotation Yrotation Xrotation
								End Site
								{
									OFFSET 0.000000 0.000000 0.000000
								}
							}
						}
					}
				}
				JOINT RightShoulder
				{
					OFFSET -0.081759 0.118833 -0.038615
					CHANNELS 3 Zrotation Yrotation Xrotation
					JOINT RightArm
					{
						OFFSET -0.096012 0.032551 -0.009143
						CHANNELS 3 Zrotation Yrotation Xrotation
						JOINT RightForeArm
						{
							OFFSET -0.253742 -0.013329 -0.021401
							CHANNELS 3 Zrotation Yrotation Xrotation
							JOINT RightHand
							{
								OFFSET -0.255298 0.007772 -0.005559
								CHANNELS 3 Zrotation Yrotation Xrotation
								End Site
								{
									OFFSET 0.000000 0.000000 0.000000
								}
							}
						}
					}
				}
			}
		}
	}
}
MOTION
Frames: 17
Frame Time: 0.050000
-0.068927 0.953007 -0.050415 2.796762 6.183553 18.843945 9.608574 -1.021609 -21.493169 -4.251978 0.376173 -0.789176 -2.347169 4.462193 20.065236 0.000000 0.000000 0.000000 -10.635269 0.389374 -23.941877 4.816378 -0.574373 2.413048 -13.124618 -25.894658 25.779957 0.000000 0.000000 0.000000 -1.059905 -2.217472 38.557661 8.945532 -2.143456 -14.999712 9.906129 11.188806 29.911844 -1.830667 4.691893 -27.187693 0.000000 0.000000 0.000000 1.120116 -12.721469 4.118367 -41.660962 -79.127954 19.799117 59.181565 -57.140355 -30.063584 0.000000 0.000000 0.000000 -22.306850 29.960678 3.661191 18.957307 47.059528 6.018915 -39.013015 -4.597427 3.532823 0.000000 0.000000 0.000000 
-0.068666 0.952371 -0.050984 2.837564 5.834848 19.081935 9.355992 -1.043705 -21.796557 -4.092454 0.366650 -0.461411 -2.098419 4.597372 19.555487 0.000000 0.000000 0.000000 -10.867503 0.374713 -24.182738 4.832079 -0.567421 1.928278 -12.831370 -25.539075 25.819665 0.000000 0.000000 0.000000 -0.947746 -2.216209 38.552112 8.508823 -2.038333 -14.776705 10.050016 11.470309 29.884770 -1.555617 4.563477 -27.589011 0.000000 0.000000 0.000000 0.224344 -12.354757 3.900713 -44.041479 -76.576856 20.419943 59.806944 -60.592718 -32.801148 0.000000 0.000000 0.000000 -22.021414 29.262794 3.626745 21.277100 46.629272 6.797342 -42.461467 -2.784149 3.403140 0.000000 0.000000 0.000000 
-0.068370 0.952151 -0.051717 3.026828 5.782641 19.299880 8.905114 -1.108174 -22.123090 -4.053648 0.363135 -0.155540 -1.987475 4.625346 19.146244 0.000000 0.000000 0.000000 -11.079589 0.345981 -24.185852 4.641248 -0.538435 1.532053 -12.761931 -25.433747 25.904595 0.000000 0.000000 0.000000 -0.639166 -2.328501 38.352037 8.124006 -1.938096 -14.620053 10.091509 11.832476 30.054322 -1.272272 4.497200 -28.243657 0.000000 0.000000 0.000000 -1.580661 -12.642777 3.803343 -45.176612 -73.729259 19.858714 60.408992 -64.548472 -36.008973 0.000000 0.000000 0.000000 -21.571995 28.641603 3.626006 22.091235 45.274417 6.771582 -44.844736 -0.252425 2.809377 0.000000 0.000000 0.000000 
-0.068075 0.951718 -0.052747 3.145117 5.486485 19.609123 8.409230 -1.168186 -22.446060 -3.672788 0.330960 0.082795 -1.914331 4.723146 19.213537 0.000000 0.000000 0.000000 -11.293649 0.328330 -24.521594 4.573470 -0.525662 1.446382 -12.807215 -25.522839 26.029915 0.000000 0.000000 0.000000 -0.485318 -2.350748 38.283540 7.661408 -1.848298 -14.133028 10.014630 12.375276 29.847703 -0.302044 4.076647 -28.746680 0.000000 0.000000 0.000000 -2.930449 -12.539968 3.579922 -47.012421 -71.382476 20.002078 62.751854 -67.870671 -40.240812 0.000000 0.000000 0.000000 -21.643961 27.815469 3.437864 22.791402 44.533432 6.911946 -47.079079 1.755504 2.333658 0.000000 0.000000 0.000000 
-0.067740 0.951416 -0.054254 3.438520 5.462453 19.966541 7.910458 -1.259292 -23.031195 -3.957855 0.355726 0.193966 -1.756301 4.868710 18.926050 0.000000 0.000000 0.000000 -11.777266 0.245597 -24.692619 4.401810 -0.503965 1.580103 -12.807339 -25.533339 25.932189 0.000000 0.000000 0.000000 -0.305360 -2.478867 38.826640 7.046771 -1.623498 -14.470542 10.022044 12.607256 29.923357 0.237316 3.827000 -28.433583 0.000000 0.000000 0.000000 -4.829555 -12.814618 3.445347 -47.028428 -69.005217 18.967239 67.319792 -71.716494 -46.899724 0.000000 0.000000 0.000000 -22.009532 27.147274 3.190099 22.613727 43.340511 6.601172 -48.525105 4.192099 1.524603 0.000000 0.000000 0.000000 
-0.067363 0.950977 -0.056396 3.638123 5.877631 20.316175 7.374359 -1.383827 -23.635112 -3.672542 0.325685 0.195517 -1.873887 4.783622 18.923472 0.000000 0.000000 0.000000 -11.881111 0.175496 -25.301398 4.059501 -0.464382 2.031804 -13.497223 -26.382871 26.137504 0.000000 0.000000 0.000000 -0.072254 -2.771219 40.065112 6.424244 -1.394551 -14.861905 10.211856 13.153228 30.026528 1.307979 3.395733 -28.671769 0.000000 0.000000 0.000000 -5.567461 -13.134526 3.387696 -47.204875 -68.282033 18.654062 70.431351 -73.524698 -51.130249 0.000000 0.000000 0.000000 -23.030499 26.173295 2.652135 21.212826 42.644643 6.167707 -48.046719 3.716060 1.819236 0.000000 0.000000 0.000000 
-0.066760 0.949990 -0.059403 3.908833 6.099560 20.910422 6.913567 -1.503367 -24.315737 -3.687491 0.324727 0.012921 -1.745531 5.058240 19.024066 0.000000 0.000000 0.000000 -12.104487 0.098196 -26.009894 3.778727 -0.428337 2.086823 -13.586125 -26.485847 26.068778 0.000000 0.000000 0.000000 0.255027 -3.059419 40.994927 5.626095 -1.169936 -14.592500 10.280415 13.676260 29.558099 2.129636 2.998025 -27.845458 0.000000 0.000000 0.000000 -6.316106 -13.469017 3.339883 -48.610665 -68.578950 19.761162 70.866660 -74.612247 -52.366648 0.000000 0.000000 0.000000 -24.009870 25.746228 2.309493 18.984770 41.824448 5.402056 -46.150612 1.593872 2.608226 0.000000 0.000000 0.000000 
-0.066006 0.948964 -0.063031 4.249956 6.671162 21.495492 6.470938 -1.650492 -25.063716 -3.441820 0.298864 -0.106903 -1.943451 4.957900 19.232690 0.000000 0.000000 0.000000 -12.356448 -0.022488 -26.518862 3.507315 -0.396478 2.358706 -14.309103 -27.357576 26.201666 0.000000 0.000000 0.000000 0.564411 -3.454851 42.233584 5.317393 -1.043845 -14.941473 10.407217 14.294173 29.755450 2.874144 2.743509 -27.905610 0.000000 0.000000 0.000000 -6.216197 -14.230601 3.529599 -48.964735 -70.188379 20.639691 70.130856 -73.710921 -50.927474 0.000000 0.000000 0.000000 -25.749152 25.207800 1.647428 16.972662 40.806608 4.821871 -43.329390 -0.323347 3.171216 0.000000 0.000000 0.000000 
-0.065301 0.947856 -0.066881 4.438492 7.207879 21.944344 6.352224 -1.751243 -25.777738 -3.483152 0.297739 -0.146536 -2.061317 4.960759 19.456592 0.000000 0.000000 0.000000 -12.561521 -0.145051 -27.262306 3.353628 -0.379089 2.816516 -14.294693 -27.274812 26.127333 0.000000 0.000000 0.000000 0.829189 -3.858792 43.579151 4.834080 -0.896351 -14.907577 10.630909 14.731265 29.658715 3.694621 2.377855 -27.576954 0.000000 0.000000 0.000000 -5.598468 -14.858256 3.765350 -47.625558 -73.258341 21.170942 68.235297 -70.692327 -46.660984 0.000000 0.000000 0.000000 -27.752067 25.170384 1.061531 15.027850 40.251399 4.368142 -39.319659 -3.343576 3.795871 0.000000 0.000000 0.000000 
-0.065139 0.947207 -0.070433 4.632611 7.742326 22.423701 5.969894 -1.891347 -26.419892 -3.233464 0.275195 -0.474634 -2.095454 5.332514 20.363954 0.000000 0.000000 0.000000 -12.852379 -0.277386 -27.701397 3.197229 -0.361759 2.598188 -14.313263 -27.154981 26.461969 0.000000 0.000000 0.000000 1.102279 -4.268326 44.762372 4.574548 -0.807401 -14.999863 10.491916 15.044438 29.562604 4.188602 2.083110 -26.471692 0.000000 0.000000 0.000000 -4.773628 -15.789201 4.181104 -43.640989 -77.121646 20.006814 64.279018 -65.850544 -39.549764 0.000000 0.000000 0.000000 -29.029903 25.308895 0.723877 13.111014 39.735912 3.844361 -35.692819 -4.878006 3.795790 0.000000 0.000000 0.000000 
-0.065573 0.946916 -0.073462 4.643958 8.301321 22.891459 5.874039 -2.007301 -27.236666 -2.939594 0.249415 -0.561141 -2.274065 5.211110 20.457042 0.000000 0.000000 0.000000 -12.981119 -0.380698 -28.111571 3.218376 -0.369162 2.853646 -14.169842 -26.899627 26.330896 0.000000 0.000000 0.000000 1.043428 -4.532432 45.972101 4.368099 -0.724082 -15.229404 10.727373 15.148369 29.532032 4.424738 1.851936 -25.196416 0.000000 0.000000 0.000000 -3.529068 -16.078584 4.411132 -34.709687 -81.428092 14.499184 61.888544 -59.841403 -33.289884 0.000000 0.000000 0.000000 -30.645117 25.228509 0.268579 12.278955 39.737921 3.764194 -32.862307 -6.281084 3.803575 0.000000 0.000000 0.000000 
-0.066678 0.946545 -0.075751 4.850771 8.943018 23.229056 5.679639 -2.141495 -27.936448 -2.928095 0.245806 -0.707932 -2.357474 5.377664 20.933315 0.000000 0.000000 0.000000 -13.092829 -0.486642 -28.382952 2.956972 -0.336886 2.665963 -14.003212 -26.536996 26.501270 0.000000 0.000000 0.000000 1.032268 -4.846912 47.160639 4.438072 -0.738091 -15.144958 10.536502 15.265462 29.008529 4.829827 1.504989 -23.940681 0.000000 0.000000 0.000000 -2.874318 -16.589834 4.660126 -14.825453 -84.102910 -2.071057 60.729772 -54.815427 -29.024944 0.000000 0.000000 0.000000 -31.349327 25.182739 0.125067 11.337554 40.047637 3.624445 -30.318695 -7.476731 3.725617 0.000000 0.000000 0.000000 
-0.068122 0.945599 -0.077548 4.833326 9.440185 23.772783 5.949369 -2.187820 -28.530633 -3.049640 0.254340 -1.039053 -2.377129 5.516876 21.191213 0.000000 0.000000 0.000000 -13.267879 -0.592336 -28.762112 3.271741 -0.386682 2.580282 -13.868855 -26.265875 26.576764 0.000000 0.000000 0.000000 0.899758 -4.995442 47.789366 4.633252 -0.763385 -15.457762 10.647364 15.410284 29.081469 4.846921 1.450210 -23.288874 0.000000 0.000000 0.000000 -2.034198 -16.659811 4.749209 16.523839 -85.475840 -30.810266 59.993768 -50.612387 -25.746326 0.000000 0.000000 0.000000 -32.127630 25.372363 -0.049227 10.541546 40.044781 3.485333 -27.760335 -8.296377 3.526905 0.000000 0.000000 0.000000 
-0.069603 0.944605 -0.078909 4.594029 9.685005 23.952235 6.593493 -2.138545 -28.981226 -3.386177 0.278552 -1.440509 -2.214052 6.104224 22.195624 0.000000 0.000000 0.000000 -12.960729 -0.558215 -28.967784 3.126194 -0.366910 2.670918 -13.717357 -26.053918 26.421092 0.000000 0.000000 0.000000 0.734854 -5.006515 48.083095 4.885633 -0.840504 -15.310148 10.727462 15.794896 28.876457 4.961397 1.404486 -22.994854 0.000000 0.000000 0.000000 -1.855133 -16.657247 4.714822 23.742416 -85.379835 -37.596739 60.794026 -50.314197 -25.961363 0.000000 0.000000 0.000000 -31.954667 25.981635 0.090114 9.393387 39.920781 3.166831 -25.174632 -9.233799 3.319966 0.000000 0.000000 0.000000 
-0.070783 0.943677 -0.079986 4.487198 9.768967 24.217052 7.043608 -2.102584 -29.343571 -3.556361 0.290866 -1.823524 -2.126279 6.384763 22.682065 0.000000 0.000000 0.000000 -13.019402 -0.597076 -29.279032 3.524275 -0.425661 2.520299 -13.652915 -25.911589 26.691974 0.000000 0.000000 0.000000 0.675006 -5.012208 48.185973 4.708397 -0.752045 -15.796736 11.126977 15.969363 29.140330 5.271821 1.301192 -23.250490 0.000000 0.000000 0.000000 -1.870413 -17.049167 4.831434 21.475493 -85.021524 -35.380588 61.070005 -51.752997 -27.012306 0.000000 0.000000 0.000000 -31.879881 26.476645 0.173736 8.367930 40.292726 2.945819 -22.622589 -10.689718 3.192760 0.000000 0.000000 0.000000 
-0.071543 0.943250 -0.080797 4.353516 9.780325 24.228685 7.315528 -2.071804 -29.517445 -3.758196 0.303631 -1.927344 -1.923059 6.839357 23.268909 0.000000 0.000000 0.000000 -12.896283 -0.588816 -29.527417 3.669077 -0.447202 2.633860 -13.656525 -25.899813 26.823718 0.000000 0.000000 0.000000 0.702561 -5.008474 48.085934 4.795690 -0.796812 -15.535535 11.160110 16.239728 28.896116 5.489483 1.279609 -23.747906 0.000000 0.000000 0.000000 -2.093801 -17.487485 4.930254 11.797052 -84.474289 -26.339632 62.150008 -53.260079 -28.715586 0.000000 0.000000 0.000000 -31.939523 26.994763 0.253816 8.083533 40.292707 2.906403 -20.925826 -11.414609 3.043933 0.000000 0.000000 0.000000 
-0.072098 0.943315 -0.081313 4.261566 9.686470 24.254281 7.583355 -2.000576 -29.261468 -3.652697 0.298667 -2.079050 -1.857104 6.935622 23.376370 0.000000 0.000000 0.000000 -13.015586 -0.601738 -29.525384 3.819644 -0.466769 2.301421 -13.641220 -25.828537 27.216951 0.000000 0.000000 0.000000 0.840130 -4.963903 47.458090 4.773058 -0.776470 -15.743058 11.337923 16.220720 28.936100 5.634602 1.321468 -24.691797 0.000000 0.000000 0.000000 -3.383664 -17.993384 4.965204 -10.083259 -83.471878 -6.505890 61.478489 -56.745634 -30.715259 0.000000 0.000000 0.000000 -30.637137 27.450986 0.706894 8.312907 40.510580 2.901875 -20.665457 -11.568968 3.015705 0.000000 0.000000 0.000000 
